<svg width="12" height="21" viewBox="0 0 12 21" fill="none" xmlns="http://www.w3.org/2000/svg">
<path id="Vector" d="M11.2 10.7099L2.20001 19.7099C2.10961 19.8139 1.99869 19.8981 1.87421 19.9572C1.74973 20.0163 1.61439 20.0491 1.47666 20.0534C1.33893 20.0577 1.2018 20.0335 1.07386 19.9823C0.945928 19.9311 0.829951 19.8541 0.733209 19.7559C0.636467 19.6578 0.561048 19.5408 0.511684 19.4121C0.462321 19.2835 0.440077 19.146 0.446349 19.0083C0.452622 18.8707 0.487274 18.7358 0.548134 18.6122C0.608993 18.4886 0.694746 18.3789 0.800011 18.2899L9.08001 9.99994L0.780011 1.70994C0.686772 1.6167 0.612811 1.50601 0.562351 1.38419C0.51189 1.26237 0.485919 1.1318 0.485919 0.999941C0.485919 0.73364 0.591707 0.478245 0.780011 0.289941C0.968314 0.101637 1.22371 -0.00415039 1.49001 -0.00415039C1.62187 -0.00415039 1.75244 0.0218212 1.87426 0.0722815C1.99608 0.122742 2.10677 0.196703 2.20001 0.289941L11.2 9.28994C11.2937 9.3829 11.3681 9.4935 11.4189 9.61536C11.4697 9.73722 11.4958 9.86793 11.4958 9.99994C11.4958 10.132 11.4697 10.2627 11.4189 10.3845C11.3681 10.5064 11.2937 10.617 11.2 10.7099Z" fill="white"/>
</svg>
