<svg width="24" height="24" viewBox="0 0 24 24" fill="none" xmlns="http://www.w3.org/2000/svg">
<path d="M6.79999 11.2901L15.8 2.29006C15.8904 2.18607 16.0013 2.10188 16.1258 2.04278C16.2503 1.98368 16.3856 1.95094 16.5233 1.94662C16.6611 1.9423 16.7982 1.9665 16.9261 2.01768C17.0541 2.06886 17.17 2.14593 17.2668 2.24406C17.3635 2.34218 17.439 2.45924 17.4883 2.58789C17.5377 2.71654 17.5599 2.854 17.5537 2.99165C17.5474 3.1293 17.5127 3.26417 17.4519 3.3878C17.391 3.51143 17.3053 3.62114 17.2 3.71006L8.91999 12.0001L17.22 20.2901C17.3132 20.3833 17.3872 20.494 17.4376 20.6158C17.4881 20.7376 17.5141 20.8682 17.5141 21.0001C17.5141 21.2664 17.4083 21.5218 17.22 21.7101C17.0317 21.8984 16.7763 22.0042 16.51 22.0042C16.3781 22.0042 16.2476 21.9782 16.1257 21.9277C16.0039 21.8773 15.8932 21.8033 15.8 21.7101L6.79999 12.7101C6.70626 12.6171 6.63187 12.5065 6.5811 12.3846C6.53033 12.2628 6.50419 12.1321 6.50419 12.0001C6.50419 11.868 6.53033 11.7373 6.5811 11.6155C6.63187 11.4936 6.70626 11.383 6.79999 11.2901Z" fill="white"/>
</svg>
